# xmcd
#
# Track frame offsets: 
#        151
#        39348
#        79588
#        111099
#        152620
#        187553
#        197375
#        206701
#        215625
#        225819
#        261190
#        278116
#        298354
#        313362
#        332275
#
# Disc length: 4697 seconds
#
# Revision: 3
# Processed by: cddbd v1.5.2PL0 Copyright (c) Steve Scherf et al.
# Submitted via: ExactAudioCopy v1.0b3
#
DISCID=ca12570f
DTITLE=Frédéric Chopin - Collection Historique - Benno Moiseiwitsch Vo
DTITLE=l.1
DYEAR=1952
DGENRE=Romantique
TTITLE0=Scherzo n° 1 en si mineur op. 20 (Benno Moiseiwitsch 1949)
TTITLE1=Scherzo n° 2 en si bémol mineur op. 31 (Benno Moiseiwitsch 192
TTITLE1=5)
TTITLE2=Scherzo n° 3 en ut dièse mineur op. 39 (Benno Moiseiwitsch 194
TTITLE2=9)
TTITLE3=Scherzo n° 4 en mi majeur op. 54 (Benno Moiseiwitsch 1949)
TTITLE4=Barcarolle en fa dièse majeur op. 60 (Benno Moiseiwitsch 1941)
TTITLE5=Étude en mi bémol majeur op. 10 n° 11 - allegretto (Benno Mois
TTITLE5=eiwitsch 1927)
TTITLE6=Étude en ut dièse mineur op. 10 n° 4 - presto (Benno Moiseiwit
TTITLE6=sch 1927)
TTITLE7=Étude en fa majeur op. 25 n° 3 - allegro (Benno Moiseiwitsch 1
TTITLE7=927)
TTITLE8=Étude en la bémol majeur op. 10 n° 10 - vivace assai (Benno Mo
TTITLE8=iseiwitsch 1927)
TTITLE9=Ballade n° 3 en la bémol majeur op. 47 (Benno Moiseiwitsch 192
TTITLE9=7)
TTITLE10=Impromptu n° 1 en la bémol majeur op. 29 (Benno Moiseiwitsch 
TTITLE10=1927)
TTITLE11=Polonaise en si bémol majeur op. 71 n° 2 (Benno Moiseiwitsch 
TTITLE11=1927)
TTITLE12=Valse en mi mineur op. posthume (Benno Moiseiwitsch 1927)
TTITLE13=Nocturne en mi mineur op. 72 n° 1 (Benno Moiseiwitsch 1952)
TTITLE14=Impromptu n° 4 en do dièse mineur op. 66 (Benno Moiseiwitsch 
TTITLE14=1952)
EXTD=
EXTT0=
EXTT1=
EXTT2=
EXTT3=
EXTT4=
EXTT5=
EXTT6=
EXTT7=
EXTT8=
EXTT9=
EXTT10=
EXTT11=
EXTT12=
EXTT13=
EXTT14=
PLAYORDER=
